<svg width="132" height="207" viewBox="0 0 132 207" fill="none" xmlns="http://www.w3.org/2000/svg">
<g filter="url(#filter0_d)">
<circle cx="65" cy="42" r="34" fill="#2E3192" stroke="white" stroke-width="16"/>
<path fill-rule="evenodd" clip-rule="evenodd" d="M85.3531 171.708C85.5364 171.372 85.6923 171.085 85.8297 170.864C85.9892 170.608 86.1817 170.301 86.4045 169.945C92.8305 159.683 124.398 109.269 113.868 89.3362C108.596 79.3575 91.6912 81.7942 77.5816 83.8279C73.3372 84.4397 69.3457 85.015 66 85.2049C62.6543 85.015 58.6628 84.4397 54.4184 83.8279C40.3088 81.7942 23.4037 79.3575 18.132 89.3362C7.60161 109.269 39.1695 159.683 45.5955 169.945C45.8183 170.301 46.0108 170.608 46.1703 170.864C46.2896 171.056 46.4262 171.297 46.5852 171.577C48.3064 174.614 52.652 182.28 66.0077 182.013C79.6033 182.276 83.6557 174.828 85.3531 171.708Z" fill="#2E3192"/>
<path d="M85.8297 170.864L92.6214 175.092L92.6215 175.092L85.8297 170.864ZM85.3531 171.708L78.326 167.885L78.326 167.885L85.3531 171.708ZM86.4045 169.945L79.6241 165.699L79.624 165.699L86.4045 169.945ZM113.868 89.3362L120.942 85.5993L120.942 85.5992L113.868 89.3362ZM77.5816 83.8279L76.4403 75.9097L77.5816 83.8279ZM66 85.2049L65.5466 93.192L66 93.2178L66.4534 93.192L66 85.2049ZM54.4184 83.8279L53.2771 91.746L54.4184 83.8279ZM18.132 89.3362L11.0584 85.5992L11.0584 85.5993L18.132 89.3362ZM45.5955 169.945L38.8151 174.191L38.8152 174.191L45.5955 169.945ZM46.1703 170.864L39.3785 175.092L39.3786 175.092L46.1703 170.864ZM46.5852 171.577L53.5447 167.632L53.5447 167.632L46.5852 171.577ZM66.0077 182.013L66.1628 174.014L66.0052 174.011L65.8476 174.014L66.0077 182.013ZM79.0379 166.637C78.749 167.101 78.4678 167.624 78.326 167.885L92.3803 175.532C92.4776 175.353 92.5387 175.241 92.5904 175.149C92.643 175.055 92.6475 175.05 92.6214 175.092L79.0379 166.637ZM79.624 165.699C79.4033 166.052 79.2043 166.37 79.0379 166.637L92.6215 175.092C92.7741 174.847 92.9602 174.55 93.1849 174.191L79.624 165.699ZM106.794 93.0731C108.099 95.5428 108.557 100.126 107.087 107.288C105.676 114.158 102.777 122.044 99.201 129.981C92.0669 145.815 82.8296 160.58 79.6241 165.699L93.1849 174.191C96.4054 169.048 106.165 153.474 113.789 136.553C117.592 128.112 121.012 119.015 122.759 110.506C124.447 102.289 124.902 93.0959 120.942 85.5993L106.794 93.0731ZM78.7229 91.746C85.992 90.6983 92.8924 89.7358 98.5778 90.0641C104.491 90.4055 106.205 91.9575 106.794 93.0731L120.942 85.5992C116.259 76.7362 106.885 74.5171 99.5002 74.0907C91.8878 73.6511 83.2808 74.9237 76.4403 75.9097L78.7229 91.746ZM66.4534 93.192C70.2178 92.9784 74.5873 92.3421 78.7229 91.746L76.4403 75.9097C72.0871 76.5372 68.4736 77.0516 65.5466 77.2177L66.4534 93.192ZM66.4534 77.2177C63.5264 77.0516 59.9129 76.5372 55.5597 75.9097L53.2771 91.746C57.4127 92.3421 61.7822 92.9784 65.5466 93.192L66.4534 77.2177ZM55.5597 75.9097C48.7192 74.9237 40.1122 73.6511 32.4998 74.0907C25.115 74.5171 15.7407 76.7362 11.0584 85.5992L25.2055 93.0731C25.7949 91.9575 27.509 90.4055 33.4222 90.0641C39.1076 89.7358 46.008 90.6983 53.2771 91.746L55.5597 75.9097ZM11.0584 85.5993C7.09794 93.0959 7.55304 102.289 9.24051 110.506C10.9878 119.015 14.4082 128.112 18.2112 136.553C25.835 153.474 35.5946 169.048 38.8151 174.191L52.3759 165.699C49.1704 160.58 39.9331 145.815 32.799 129.981C29.223 122.044 26.3243 114.158 24.9135 107.288C23.4428 100.126 23.9008 95.5428 25.2055 93.0731L11.0584 85.5993ZM38.8152 174.191C39.0398 174.55 39.2259 174.847 39.3785 175.092L52.9621 166.637C52.7957 166.37 52.5967 166.052 52.3759 165.699L38.8152 174.191ZM39.3786 175.092C39.3725 175.082 39.3876 175.106 39.4367 175.191C39.4855 175.276 39.542 175.375 39.6256 175.523L53.5447 167.632C53.4144 167.402 53.1874 166.999 52.9621 166.637L39.3786 175.092ZM39.6256 175.523C40.5568 177.165 42.7347 181.084 47.0865 184.398C51.5848 187.824 57.8014 190.178 66.1678 190.011L65.8476 174.014C60.8583 174.114 58.2243 172.769 56.7805 171.669C55.1903 170.458 54.3348 169.026 53.5447 167.632L39.6256 175.523ZM78.326 167.885C77.5452 169.32 76.7792 170.639 75.3068 171.756C73.9704 172.77 71.3663 174.115 66.1628 174.014L65.8526 190.011C74.2447 190.174 80.4646 187.927 84.9776 184.503C89.3547 181.182 91.4636 177.217 92.3803 175.532L78.326 167.885Z" fill="white"/>
</g>
<defs>
<filter id="filter0_d" x="-9.15527e-05" y="0" width="132" height="206.019" filterUnits="userSpaceOnUse" color-interpolation-filters="sRGB">
<feFlood flood-opacity="0" result="BackgroundImageFix"/>
<feColorMatrix in="SourceAlpha" type="matrix" values="0 0 0 0 0 0 0 0 0 0 0 0 0 0 0 0 0 0 127 0" result="hardAlpha"/>
<feOffset dy="8"/>
<feGaussianBlur stdDeviation="4"/>
<feComposite in2="hardAlpha" operator="out"/>
<feColorMatrix type="matrix" values="0 0 0 0 0 0 0 0 0 0 0 0 0 0 0 0 0 0 0.3 0"/>
<feBlend mode="normal" in2="BackgroundImageFix" result="effect1_dropShadow"/>
<feBlend mode="normal" in="SourceGraphic" in2="effect1_dropShadow" result="shape"/>
</filter>
</defs>
</svg>
